#!OML:ASF H:\Terrain\Walking\May29\JustinRory\Justin.ASF
:FULLY-SPECIFIED
:DEGREES
1697
root 12.097870459081836 17.708552894211575 6.765675768463074 -162.64404590818364 -79.32944151696607 114.59038123752495 
lowerback 4.949177025948104 -2.96436622754491 -12.362533393213571 
upperback 2.628628882235529 -4.562607684630738 0.8809731556886228 
thorax 1.090343756487026 -2.5236841716566865 8.012083353293413 
lowerneck -1.5575915449101814 -12.557722015968064 -15.694636946107783 
upperneck 20.358536526946107 -20.493445822355287 13.758675241516965 
head 10.170935928143713 -10.291940978043911 4.920842075848303 
rclavicle 5.691584231536926e-14 -1.674989620758483e-14 
rhumerus -33.14733892215569 -19.523094411177645 -69.47342035928143 
rradius 33.32879760479042 
rwrist -16.180138323353294 
rhand -10.61245361277445 22.83052654690619 
rfingers 7.12502 
rthumb 15.390578403193611 -6.5175241117764475 
lclavicle 5.691584231536926e-14 -1.674989620758483e-14 
lhumerus -24.683046307385233 8.175863233532937 79.95687225548902 
lradius 28.248796007984033 
lwrist -8.57988387225549 
lhand 0.3181055688622756 39.76440758483034 
lfingers 7.12502 
lthumb 25.89317405189621 68.00200738522955 
rfemur -25.332269061876246 -5.468750798403194 9.368135169660679 
rtibia 37.25160718562874 
rfoot -13.858876746506985 -6.9614053892215555 
rtoes 4.2007263473053875 
lfemur -8.63259457085828 7.241321576846306 -24.88918502994012 
ltibia 28.063938123752493 
lfoot -18.446884231536927 4.723831257485031 
ltoes 2.171914491017965 
1698
root 12.10073113772455 17.70816586826347 6.748364730538922 -162.6101137724551 -79.21387245508981 115.27481437125746 
lowerback 4.953586107784432 -2.9668558682634734 -12.37981101796407 
upperback 2.631137664670659 -4.567027305389221 0.8824896467065868 
thorax 1.0926045269461078 -2.526374251497006 8.023577005988024 
lowerneck -1.5234202634730565 -12.581017604790418 -15.708098083832335 
upperneck 20.35162095808383 -20.539324646706586 13.792957772455088 
head 10.170810778443114 -10.312573293413173 4.929538622754491 
rclavicle 5.6754652694610776e-14 -1.6753268862275447e-14 
rhumerus -33.146161676646706 -19.526938323353292 -69.48244610778443 
rradius 33.336359281437126 
rwrist -16.176751497005988 
rhand -10.584788083832334 22.830317964071856 
rfingers 7.12502 
rthumb 15.417259520958083 -6.516343233532934 
lclavicle 5.6754652694610776e-14 -1.6753268862275447e-14 
lhumerus -24.66405389221557 8.159704970059881 79.9874616766467 
lradius 28.24759880239521 
lwrist -8.589029161676647 
lhand 0.3315746706586822 39.7608622754491 
lfingers 7.12502 
lthumb 25.90609221556886 67.99679221556886 
rfemur -25.320040718562872 -5.473480239520958 9.330234550898204 
rtibia 37.30422215568863 
rfoot -13.882588023952094 -6.985041616766466 
rtoes 4.219877904191616 
lfemur -8.662534371257482 7.276063473053891 -24.884245508982037 
ltibia 28.091881437125746 
lfoot -18.45896526946108 4.778491377245508 
ltoes 2.1115563473053918 
1699
root 12.103591816367265 17.707778842315367 6.731053692614771 -162.57618163672655 -79.09830339321357 115.95924750498997 
lowerback 4.957995189620759 -2.9693455089820358 -12.39708864271457 
upperback 2.6336464471057885 -4.571446926147704 0.8840061377245508 
thorax 1.0948652974051896 -2.5290643313373256 8.035070658682635 
lowerneck -1.4892489820359298 -12.604313193612771 -15.721559221556884 
upperneck 20.344705389221556 -20.585203471057884 13.827240303393213 
head 10.170685628742515 -10.333205608782436 4.938235169660678 
rclavicle 5.659346307385229e-14 -1.6756641516966068e-14 
rhumerus -33.14498443113772 -19.530782235528942 -69.49147185628743 
rradius 33.343920958083835 
rwrist -16.17336467065868 
rhand -10.557122554890219 22.830109381237524 
rfingers 7.12502 
rthumb 15.443940638722554 -6.515162355289421 
lclavicle 5.659346307385229e-14 -1.6756641516966068e-14 
lhumerus -24.64506147704591 8.143546706586829 80.01805109780439 
lradius 28.246401596806386 
lwrist -8.598174451097805 
lhand 0.34504377245508966 39.75731696606786 
lfingers 7.12502 
lthumb 25.91901037924152 67.99157704590819 
rfemur -25.3078123752495 -5.478209680638722 9.29233393213573 
rtibia 37.356837125748505 
rfoot -13.906299301397205 -7.008677844311375 
rtoes 4.239029461077843 
lfemur -8.692474171656684 7.310805369261474 -24.87930598802395 
ltibia 28.119824750499 
lfoot -18.47104630738523 4.833151497005989 
ltoes 2.051198203592815 
1700
root 12.106452495009979 17.707391816367263 6.713742654690619 -162.542249500998 -78.98273433133733 116.64368063872254 
lowerback 4.9624042714570855 -2.971835149700599 -12.414366267465068 
upperback 2.6361552295409183 -4.575866546906187 0.885522628742515 
thorax 1.0971260678642714 -2.5317544111776447 8.046564311377244 
lowerneck -1.455077700598805 -12.627608782435129 -15.735020359281435 
upperneck 20.337789820359284 -20.63108229540918 13.861522834331335 
head 10.170560479041916 -10.353837924151698 4.9469317165668665 
rclavicle 5.6432273453093804e-14 -1.6760014171656685e-14 
rhumerus -33.143807185628745 -19.53462614770459 -69.50049760479043 
rradius 33.35148263473054 
rwrist -16.169977844311376 
rhand -10.529457025948103 22.829900798403195 
rfingers 7.12502 
rthumb 15.470621756487025 -6.513981477045909 
lclavicle 5.6432273453093804e-14 -1.6760014171656685e-14 
lhumerus -24.62606906187625 8.127388443113775 80.04864051896207 
lradius 28.245204391217566 
lwrist -8.607319740518964 
lhand 0.35851287425149714 39.75377165668663 
lfingers 7.12502 
lthumb 25.93192854291417 67.98636187624751 
rfemur -25.295584031936126 -5.482939121756488 9.254433313373251 
rtibia 37.40945209580838 
rfoot -13.930010578842314 -7.032314071856286 
rtoes 4.25818101796407 
lfemur -8.722413972055886 7.345547265469059 -24.87436646706587 
ltibia 28.147768063872256 
lfoot -18.48312734530938 4.8878116167664665 
ltoes 1.9908400598802416 
1701
root 12.109313173652694 17.70700479041916 6.696431616766468 -162.50831736526948 -78.86716526946108 117.32811377245505 
lowerback 4.966813353293413 -2.9743247904191614 -12.431643892215568 
upperback 2.638664011976048 -4.580286167664671 0.887039119760479 
thorax 1.0993868383233534 -2.5344444910179638 8.058057964071855 
lowerneck -1.4209064191616783 -12.650904371257482 -15.748481497005987 
upperneck 20.330874251497008 -20.676961119760477 13.89580536526946 
head 10.170435329341316 -10.37447023952096 4.955628263473054 
rclavicle 5.627108383233533e-14 -1.6763386826347303e-14 
rhumerus -33.14262994011976 -19.53847005988024 -69.50952335329342 
rradius 33.35904431137725 
rwrist -16.166591017964073 
rhand -10.501791497005987 22.829692215568862 
rfingers 7.12502 
rthumb 15.497302874251496 -6.512800598802396 
lclavicle 5.627108383233533e-14 -1.6763386826347303e-14 
lhumerus -24.607076646706588 8.111230179640721 80.07922994011976 
lradius 28.244007185628742 
lwrist -8.61646502994012 
lhand 0.37198197604790373 39.75022634730539 
lfingers 7.12502 
lthumb 25.944846706586826 67.98114670658683 
rfemur -25.283355688622756 -5.487668562874251 9.216532694610777 
rtibia 37.46206706586827 
rfoot -13.953721856287425 -7.0559502994011964 
rtoes 4.277332574850298 
lfemur -8.752353772455088 7.380289161676644 -24.869426946107787 
ltibia 28.175711377245506 
lfoot -18.495208383233532 4.942471736526947 
ltoes 1.9304819161676683 
1702
root 12.112173852295408 17.70661776447106 6.679120578842316 -162.47438522954093 -78.75159620758484 118.01254690618762 
lowerback 4.97122243512974 -2.9768144311377247 -12.448921516966067 
upperback 2.641172794411178 -4.584705788423153 0.8885556107784431 
thorax 1.1016476087824352 -2.5371345708582833 8.069551616766466 
lowerneck -1.3867351377245534 -12.67419996007984 -15.761942634730538 
upperneck 20.323958682634732 -20.722839944111776 13.930087896207583 
head 10.170310179640719 -10.395102554890219 4.9643248103792414 
rclavicle 5.6109894211576843e-14 -1.6766759481037924e-14 
rhumerus -33.14145269461078 -19.542313972055886 -69.51854910179641 
rradius 33.366605988023956 
rwrist -16.163204191616767 
rhand -10.474125968063872 22.829483632734533 
rfingers 7.12502 
rthumb 15.523983992015967 -6.511619720558882 
lclavicle 5.6109894211576843e-14 -1.6766759481037924e-14 
lhumerus -24.58808423153693 8.095071916167667 80.10981936127743 
lradius 28.24280998003992 
lwrist -8.625610319361279 
lhand 0.3854510778443112 39.746681037924155 
lfingers 7.12502 
lthumb 25.95776487025948 67.97593153692615 
rfemur -25.27112734530938 -5.492398003992015 9.178632075848302 
rtibia 37.514682035928146 
rfoot -13.977433133732534 -7.079586526946107 
rtoes 4.296484131736525 
lfemur -8.78229357285429 7.415031057884229 -24.8644874251497 
ltibia 28.203654690618762 
lfoot -18.507289421157687 4.9971318562874245 
ltoes 1.8701237724550914 
